<svg width="81" height="67" viewBox="0 0 81 67" fill="none" xmlns="http://www.w3.org/2000/svg">
<path d="M69.9244 59.5664C68.979 59.5664 68.1103 58.9759 67.8407 58.0723L51.879 4.53214C51.554 3.44235 52.2241 2.30949 53.3756 2.00194C54.5273 1.69439 55.7243 2.3286 56.0489 3.41838L72.0106 56.9586C72.3356 58.0484 71.6655 59.1812 70.5141 59.4888C70.3173 59.5412 70.1193 59.5664 69.9244 59.5664Z" fill="white"/>
<path d="M69.9244 59.5664C68.979 59.5664 68.1103 58.9759 67.8407 58.0723L51.879 4.53214C51.554 3.44235 52.2241 2.30949 53.3756 2.00194C54.5273 1.69439 55.7243 2.3286 56.0489 3.41838L72.0106 56.9586C72.3356 58.0484 71.6655 59.1812 70.5141 59.4888C70.3173 59.5412 70.1193 59.5664 69.9244 59.5664Z" fill="white"/>
<path d="M46.7569 7.95117C45.8116 7.95117 44.9425 7.36063 44.6733 6.45708C44.3483 5.36699 45.0184 4.23413 46.1698 3.92688L60.5815 0.077909C61.7326 -0.229645 62.9299 0.404572 63.2548 1.49436C63.5798 2.58444 62.9097 3.7173 61.7579 4.02485L47.3466 7.87353C47.1498 7.926 46.9518 7.95117 46.7569 7.95117Z" fill="white"/>
<path d="M46.7569 7.95117C45.8116 7.95117 44.9425 7.36063 44.6733 6.45708C44.3483 5.36699 45.0184 4.23413 46.1698 3.92688L60.5815 0.077909C61.7326 -0.229645 62.9299 0.404572 63.2548 1.49436C63.5798 2.58444 62.9097 3.7173 61.7579 4.02485L47.3466 7.87353C47.1498 7.926 46.9518 7.95117 46.7569 7.95117Z" fill="white"/>
<path d="M10.2514 51.6968C6.98802 51.6968 4.33286 54.2098 4.33286 57.2986C4.33286 60.386 6.98802 62.8983 10.2514 62.8983C13.515 62.8983 16.1704 60.386 16.1704 57.2986C16.1704 54.2098 13.515 51.6968 10.2514 51.6968ZM10.2514 66.999C4.59878 66.999 0 62.6475 0 57.2986C0 51.9483 4.59878 47.5958 10.2514 47.5958C15.9041 47.5958 20.5031 51.9483 20.5031 57.2986C20.5031 62.6475 15.9041 66.999 10.2514 66.999Z" fill="white"/>
<path d="M10.2514 51.6968C6.98802 51.6968 4.33286 54.2098 4.33286 57.2986C4.33286 60.386 6.98802 62.8983 10.2514 62.8983C13.515 62.8983 16.1704 60.386 16.1704 57.2986C16.1704 54.2098 13.515 51.6968 10.2514 51.6968ZM10.2514 66.999C4.59878 66.999 0 62.6475 0 57.2986C0 51.9483 4.59878 47.5958 10.2514 47.5958C15.9041 47.5958 20.5031 51.9483 20.5031 57.2986C20.5031 62.6475 15.9041 66.999 10.2514 66.999Z" fill="white"/>
<path d="M10.2514 51.6968C6.98802 51.6968 4.33286 54.2098 4.33286 57.2986C4.33286 60.386 6.98802 62.8983 10.2514 62.8983C13.515 62.8983 16.1704 60.386 16.1704 57.2986C16.1704 54.2098 13.515 51.6968 10.2514 51.6968ZM10.2514 66.999C4.59878 66.999 0 62.6475 0 57.2986C0 51.9483 4.59878 47.5958 10.2514 47.5958C15.9041 47.5958 20.5031 51.9483 20.5031 57.2986C20.5031 62.6475 15.9041 66.999 10.2514 66.999Z" fill="white"/>
<path d="M10.2514 51.6968C6.98802 51.6968 4.33286 54.2098 4.33286 57.2986C4.33286 60.386 6.98802 62.8983 10.2514 62.8983C13.515 62.8983 16.1704 60.386 16.1704 57.2986C16.1704 54.2098 13.515 51.6968 10.2514 51.6968ZM10.2514 66.999C4.59878 66.999 0 62.6475 0 57.2986C0 51.9483 4.59878 47.5958 10.2514 47.5958C15.9041 47.5958 20.5031 51.9483 20.5031 57.2986C20.5031 62.6475 15.9041 66.999 10.2514 66.999Z" fill="white"/>
<path d="M55.5992 59.3486C54.4026 59.3486 53.4329 58.4305 53.4329 57.2983C53.4329 50.3634 58.3546 44.2072 65.4017 42.327C66.5537 42.0198 67.75 42.6543 68.0747 43.7441C68.3993 44.8341 67.7289 45.9667 66.5771 46.2739C61.3891 47.6582 57.7656 52.1915 57.7656 57.2983C57.7656 58.4305 56.7959 59.3486 55.5992 59.3486Z" fill="white"/>
<path d="M55.5992 59.3486C54.4026 59.3486 53.4329 58.4305 53.4329 57.2983C53.4329 50.3634 58.3546 44.2072 65.4017 42.327C66.5537 42.0198 67.75 42.6543 68.0747 43.7441C68.3993 44.8341 67.7289 45.9667 66.5771 46.2739C61.3891 47.6582 57.7656 52.1915 57.7656 57.2983C57.7656 58.4305 56.7959 59.3486 55.5992 59.3486Z" fill="white"/>
<path d="M24.5175 59.3486C23.3209 59.3486 22.3508 58.4305 22.3508 57.2983C22.3508 57.1939 22.3489 57.0917 22.347 56.9892V56.9789C22.3435 56.8903 22.3399 56.8033 22.3348 56.7162L22.3332 56.6835C22.33 56.6107 22.3258 56.5376 22.3198 56.4648C22.3185 56.4496 22.3172 56.4345 22.3159 56.4193L22.3143 56.3984C22.3092 56.3386 22.3044 56.2789 22.298 56.2188C22.2438 55.6895 22.1582 55.1894 22.0413 54.7144L22.0333 54.6807C22.0313 54.6719 22.0294 54.6631 22.0272 54.6543L21.907 54.432L21.9051 54.207C21.9015 54.1951 21.8977 54.183 21.8942 54.1712L21.8855 54.1417C21.873 54.0984 21.8605 54.0562 21.8467 54.0141L21.8304 53.9625C21.8176 53.9188 21.8035 53.8767 21.7881 53.8342L21.7753 53.7987C21.7577 53.7465 21.7404 53.6947 21.7208 53.6428L21.7057 53.601C21.6538 53.452 21.5974 53.3046 21.5375 53.163L21.526 53.1354C21.4984 53.0668 21.4712 52.9983 21.4404 52.9312L21.3542 52.7371C21.3093 52.6413 21.2683 52.5542 21.226 52.469L21.2023 52.4217C21.184 52.3844 21.1658 52.3465 21.1462 52.3107L21.1219 52.2646C21.0222 52.0696 20.9103 51.8688 20.7895 51.6683L20.7748 51.6437C20.7434 51.5894 20.7101 51.5351 20.6751 51.4808L20.6469 51.435C20.6235 51.3965 20.5995 51.358 20.5742 51.3207L20.5453 51.2776C20.4611 51.1478 20.3713 51.018 20.2816 50.8915L20.2406 50.8348C20.2085 50.7899 20.1765 50.7447 20.1431 50.7007C19.8567 50.3179 19.5423 49.9485 19.208 49.6003C19.1427 49.5318 19.0847 49.472 19.025 49.4141L19.0029 49.3923C18.9385 49.328 18.8725 49.2637 18.8065 49.2012L18.7866 49.1821C18.727 49.1241 18.6652 49.0695 18.6036 49.0143L18.5841 48.9964C18.4626 48.8851 18.3418 48.7802 18.2146 48.6764L18.1617 48.6337C18.0967 48.5797 18.0319 48.5272 17.9653 48.4766L17.9422 48.4587C17.8906 48.4183 17.839 48.3786 17.7874 48.3398H17.6477L17.1359 47.88C17.1019 47.8578 17.068 47.836 17.0337 47.8147L16.9994 47.7926C16.9593 47.7668 16.9189 47.7413 16.8782 47.7159L16.8125 47.6743C16.7911 47.6613 16.7539 47.6388 16.7154 47.617L16.6126 47.556C16.5626 47.5257 16.5123 47.4972 16.4604 47.4681C16.1617 47.2985 15.8672 47.1472 15.5688 47.0086C15.522 46.987 15.4695 46.9625 15.415 46.9394L15.3515 46.9118C15.3096 46.8927 15.2663 46.8736 15.2227 46.8545L15.1673 46.8314C15.1016 46.8038 15.0365 46.7768 14.9702 46.7507C14.4972 46.5615 14.0181 46.4022 13.5374 46.2733C12.386 45.9652 11.7168 44.8317 12.0427 43.7422C12.3686 42.6525 13.5662 42.0194 14.717 42.3276C15.3695 42.5023 16.0188 42.7183 16.6469 42.9691C16.7299 43.0019 16.8202 43.0395 16.9113 43.0774L17.0247 43.125C17.0856 43.1517 17.1465 43.1784 17.2058 43.2051C17.2955 43.2436 17.3836 43.2836 17.4714 43.3243C17.8845 43.516 18.2867 43.7231 18.6732 43.9424C18.7392 43.9791 18.8139 44.0219 18.8901 44.0671C18.9295 44.0892 18.9651 44.1105 18.9962 44.1302C19.0574 44.1657 19.1186 44.202 19.1782 44.2391H19.209L19.7743 44.6215C19.7945 44.6352 19.815 44.6491 19.8352 44.6628L19.8938 44.7031C19.9566 44.7468 20.0198 44.7911 20.0816 44.8354C20.1896 44.9109 20.2973 44.9888 20.4053 45.071C20.5021 45.1429 20.5989 45.2166 20.6956 45.2921C20.7998 45.3719 20.9017 45.4541 21.0039 45.5381L21.0427 45.5694C21.2315 45.7234 21.4157 45.8833 21.5929 46.0459C21.6894 46.1323 21.7855 46.2194 21.8794 46.31C21.9672 46.3931 22.0547 46.4784 22.14 46.5636C22.2368 46.6576 22.3307 46.7541 22.4223 46.8505C22.8652 47.3116 23.2901 47.8111 23.6763 48.3267C23.726 48.3929 23.776 48.462 23.8253 48.5312L23.8686 48.5912C23.9964 48.7711 24.1144 48.9424 24.2256 49.1135C24.2849 49.2006 24.3416 49.29 24.3961 49.3795C24.4534 49.4693 24.5082 49.5594 24.5611 49.6495C24.7233 49.9194 24.8751 50.1918 25.0126 50.4599C25.0508 50.5312 25.0879 50.6052 25.1245 50.6786L25.144 50.7183C25.2036 50.8378 25.2607 50.9588 25.3177 51.0802L25.4212 51.3116C25.4725 51.4244 25.5199 51.5394 25.5667 51.6546C25.6548 51.8642 25.7382 52.0805 25.8144 52.2982C25.842 52.3732 25.8676 52.4478 25.8933 52.5224C25.9285 52.621 25.9615 52.7198 25.992 52.8205C26.0167 52.8964 26.0394 52.9722 26.0618 53.0498C26.0763 53.0975 26.0904 53.1451 26.1041 53.1924L26.1221 53.2255L26.2355 53.6768C26.2455 53.7174 26.2554 53.7584 26.265 53.799C26.4233 54.4457 26.539 55.1214 26.6089 55.8075C26.6172 55.8806 26.6249 55.9695 26.6323 56.0593C26.6342 56.0778 26.6358 56.0966 26.6371 56.1154L26.638 56.129C26.6486 56.2546 26.6566 56.3805 26.6621 56.506C26.6688 56.624 26.6736 56.7423 26.6781 56.8627L26.6794 56.9328C26.6819 57.0538 26.6839 57.1748 26.6839 57.2983C26.6839 58.4305 25.7138 59.3486 24.5175 59.3486Z" fill="white"/>
<path d="M24.5175 59.3486C23.3209 59.3486 22.3508 58.4305 22.3508 57.2983C22.3508 57.1939 22.3489 57.0917 22.347 56.9892V56.9789C22.3435 56.8903 22.3399 56.8033 22.3348 56.7162L22.3332 56.6835C22.33 56.6107 22.3258 56.5376 22.3198 56.4648C22.3185 56.4496 22.3172 56.4345 22.3159 56.4193L22.3143 56.3984C22.3092 56.3386 22.3044 56.2789 22.298 56.2188C22.2438 55.6895 22.1582 55.1894 22.0413 54.7144L22.0333 54.6807C22.0313 54.6719 22.0294 54.6631 22.0272 54.6543L21.907 54.432L21.9051 54.207C21.9015 54.1951 21.8977 54.183 21.8942 54.1712L21.8855 54.1417C21.873 54.0984 21.8605 54.0562 21.8467 54.0141L21.8304 53.9625C21.8176 53.9188 21.8035 53.8767 21.7881 53.8342L21.7753 53.7987C21.7577 53.7465 21.7404 53.6947 21.7208 53.6428L21.7057 53.601C21.6538 53.452 21.5974 53.3046 21.5375 53.163L21.526 53.1354C21.4984 53.0668 21.4712 52.9983 21.4404 52.9312L21.3542 52.7371C21.3093 52.6413 21.2683 52.5542 21.226 52.469L21.2023 52.4217C21.184 52.3844 21.1658 52.3465 21.1462 52.3107L21.1219 52.2646C21.0222 52.0696 20.9103 51.8688 20.7895 51.6683L20.7748 51.6437C20.7434 51.5894 20.7101 51.5351 20.6751 51.4808L20.6469 51.435C20.6235 51.3965 20.5995 51.358 20.5742 51.3207L20.5453 51.2776C20.4611 51.1478 20.3713 51.018 20.2816 50.8915L20.2406 50.8348C20.2085 50.7899 20.1765 50.7447 20.1431 50.7007C19.8567 50.3179 19.5423 49.9485 19.208 49.6003C19.1427 49.5318 19.0847 49.472 19.025 49.4141L19.0029 49.3923C18.9385 49.328 18.8725 49.2637 18.8065 49.2012L18.7866 49.1821C18.727 49.1241 18.6652 49.0695 18.6036 49.0143L18.5841 48.9964C18.4626 48.8851 18.3418 48.7802 18.2146 48.6764L18.1617 48.6337C18.0967 48.5797 18.0319 48.5272 17.9653 48.4766L17.9422 48.4587C17.8906 48.4183 17.839 48.3786 17.7874 48.3398H17.6477L17.1359 47.88C17.1019 47.8578 17.068 47.836 17.0337 47.8147L16.9994 47.7926C16.9593 47.7668 16.9189 47.7413 16.8782 47.7159L16.8125 47.6743C16.7911 47.6613 16.7539 47.6388 16.7154 47.617L16.6126 47.556C16.5626 47.5257 16.5123 47.4972 16.4604 47.4681C16.1617 47.2985 15.8672 47.1472 15.5688 47.0086C15.522 46.987 15.4695 46.9625 15.415 46.9394L15.3515 46.9118C15.3096 46.8927 15.2663 46.8736 15.2227 46.8545L15.1673 46.8314C15.1016 46.8038 15.0365 46.7768 14.9702 46.7507C14.4972 46.5615 14.0181 46.4022 13.5374 46.2733C12.386 45.9652 11.7168 44.8317 12.0427 43.7422C12.3686 42.6525 13.5662 42.0194 14.717 42.3276C15.3695 42.5023 16.0188 42.7183 16.6469 42.9691C16.7299 43.0019 16.8202 43.0395 16.9113 43.0774L17.0247 43.125C17.0856 43.1517 17.1465 43.1784 17.2058 43.2051C17.2955 43.2436 17.3836 43.2836 17.4714 43.3243C17.8845 43.516 18.2867 43.7231 18.6732 43.9424C18.7392 43.9791 18.8139 44.0219 18.8901 44.0671C18.9295 44.0892 18.9651 44.1105 18.9962 44.1302C19.0574 44.1657 19.1186 44.202 19.1782 44.2391H19.209L19.7743 44.6215C19.7945 44.6352 19.815 44.6491 19.8352 44.6628L19.8938 44.7031C19.9566 44.7468 20.0198 44.7911 20.0816 44.8354C20.1896 44.9109 20.2973 44.9888 20.4053 45.071C20.5021 45.1429 20.5989 45.2166 20.6956 45.2921C20.7998 45.3719 20.9017 45.4541 21.0039 45.5381L21.0427 45.5694C21.2315 45.7234 21.4157 45.8833 21.5929 46.0459C21.6894 46.1323 21.7855 46.2194 21.8794 46.31C21.9672 46.3931 22.0547 46.4784 22.14 46.5636C22.2368 46.6576 22.3307 46.7541 22.4223 46.8505C22.8652 47.3116 23.2901 47.8111 23.6763 48.3267C23.726 48.3929 23.776 48.462 23.8253 48.5312L23.8686 48.5912C23.9964 48.7711 24.1144 48.9424 24.2256 49.1135C24.2849 49.2006 24.3416 49.29 24.3961 49.3795C24.4534 49.4693 24.5082 49.5594 24.5611 49.6495C24.7233 49.9194 24.8751 50.1918 25.0126 50.4599C25.0508 50.5312 25.0879 50.6052 25.1245 50.6786L25.144 50.7183C25.2036 50.8378 25.2607 50.9588 25.3177 51.0802L25.4212 51.3116C25.4725 51.4244 25.5199 51.5394 25.5667 51.6546C25.6548 51.8642 25.7382 52.0805 25.8144 52.2982C25.842 52.3732 25.8676 52.4478 25.8933 52.5224C25.9285 52.621 25.9615 52.7198 25.992 52.8205C26.0167 52.8964 26.0394 52.9722 26.0618 53.0498C26.0763 53.0975 26.0904 53.1451 26.1041 53.1924L26.1221 53.2255L26.2355 53.6768C26.2455 53.7174 26.2554 53.7584 26.265 53.799C26.4233 54.4457 26.539 55.1214 26.6089 55.8075C26.6172 55.8806 26.6249 55.9695 26.6323 56.0593C26.6342 56.0778 26.6358 56.0966 26.6371 56.1154L26.638 56.129C26.6486 56.2546 26.6566 56.3805 26.6621 56.506C26.6688 56.624 26.6736 56.7423 26.6781 56.8627L26.6794 56.9328C26.6819 57.0538 26.6839 57.1748 26.6839 57.2983C26.6839 58.4305 25.7138 59.3486 24.5175 59.3486Z" fill="white"/>
<path d="M69.8658 51.6966C66.6024 51.6966 63.9477 54.2092 63.9477 57.2978C63.9477 60.3864 66.6024 62.899 69.8658 62.899C73.1287 62.899 75.7835 60.3864 75.7835 57.2978C75.7835 54.2092 73.1287 51.6966 69.8658 51.6966ZM69.8658 67C64.2134 67 59.6147 62.6475 59.6147 57.2978C59.6147 51.9481 64.2134 47.5956 69.8658 47.5956C75.5181 47.5956 80.1165 51.9481 80.1165 57.2978C80.1165 62.6475 75.5181 67 69.8658 67Z" fill="white"/>
<path d="M69.8658 51.6966C66.6024 51.6966 63.9477 54.2092 63.9477 57.2978C63.9477 60.3864 66.6024 62.899 69.8658 62.899C73.1287 62.899 75.7835 60.3864 75.7835 57.2978C75.7835 54.2092 73.1287 51.6966 69.8658 51.6966ZM69.8658 67C64.2134 67 59.6147 62.6475 59.6147 57.2978C59.6147 51.9481 64.2134 47.5956 69.8658 47.5956C75.5181 47.5956 80.1165 51.9481 80.1165 57.2978C80.1165 62.6475 75.5181 67 69.8658 67Z" fill="white"/>
<path d="M55.6986 59.3477H10.2511C9.05445 59.3477 8.08472 58.4298 8.08472 57.2973C8.08472 56.165 9.05445 55.2469 10.2511 55.2469H55.6986C56.8952 55.2469 57.8649 56.165 57.8649 57.2973C57.8649 58.4298 56.8952 59.3477 55.6986 59.3477Z" fill="white"/>
<path d="M55.6986 59.3477H10.2511C9.05445 59.3477 8.08472 58.4298 8.08472 57.2973C8.08472 56.165 9.05445 55.2469 10.2511 55.2469H55.6986C56.8952 55.2469 57.8649 56.165 57.8649 57.2973C57.8649 58.4298 56.8952 59.3477 55.6986 59.3477Z" fill="white"/>
</svg>
